# xmcd
#
# Track frame offsets:
#	150
#	13532
#	25781
#	39236
#	51590
#	63469
#	78156
#	90229
#	101743
#	113079
#	124293
#
# Disc length: 1871 seconds
# Revision: 0
# Processed by: cddbd v1.5.2PL0 Copyright (c) Steve Scherf et al.
# Submitted via: dBpowerAMP V12.0
#
DISCID=82074d0b
DTITLE=Waylon Jennings - Dreaming My Dreams [RCA] (L)
DYEAR=1975
DGENRE=Country
TTITLE0=Are You Sure Hank Done It This Way
TTITLE1=Waymore's Blues
TTITLE2=I Recall a Gypsy Woman
TTITLE3=High Time (You Quit Your Low Down Ways)
TTITLE4=I've Been a Long Time Leaving (But I'll Be a Long Time Gone)
TTITLE5=Let's All Help the Cowboys (Sing the Blues)
TTITLE6=The Door Is Always Open
TTITLE7=Let's Turn Back the Years
TTITLE8=She's Looking Good
TTITLE9=Dreaming My Dreams With You
TTITLE10=Bob Wills Is Still the King [live]
EXTD=
EXTT0=
EXTT1=
EXTT2=
EXTT3=
EXTT4=
EXTT5=
EXTT6=
EXTT7=
EXTT8=
EXTT9=
EXTT10=
PLAYORDER=
